<svg width="210px" height="124px" viewBox="0 0 210 124" version="1.1" xmlns="http://www.w3.org/2000/svg" xmlns:xlink="http://www.w3.org/1999/xlink">
    <g id="Logos" stroke="none" stroke-width="1" fill="none" fill-rule="evenodd">
        <path d="M120,62.5672118 L120,1 L171.153686,1 C176.627693,1 183.083977,3.15698236 188.186913,7.35953071 C194.891537,12.8811573 198.723054,21.3008596 198.723054,32.1963214 C198.723054,43.1546157 194.614653,51.484137 187.548759,56.8077507 C182.465439,60.6376463 176.16128,62.5672118 171.153686,62.5672118 L157.584401,62.5672118 L134,62.5672118 L134,88.4104265 L120,88.4104265 L120,48.5672118 L134,48.5672118 L134,62.5672118 L120,62.5672118 Z M171.153686,48.5672118 C173.23789,48.5672118 176.577337,47.5450798 179.124276,45.6261548 C182.661188,42.961361 184.723054,38.7810586 184.723054,32.1963214 C184.723054,25.4151332 182.705703,20.9820349 179.286847,18.1664184 C176.779606,16.1015681 173.48239,15 171.153686,15 L134,15 L134,48.5672118 L171.153686,48.5672118 Z M108,109 L210,109 L210,123 L108,123 L108,109 Z M15.6873198,14.5895735 L15.6873198,0.58957347 L84.1776607,0.58957347 L84.1776607,81 C84.1776607,89.6736975 82.5711387,97.9721837 77.885452,105.580015 C70.9697756,116.808529 58.7618557,123.242093 41.1707375,123.242093 C21.1909006,123.242093 7.22820385,113.230682 0.606945748,94.1978078 L13.8296577,89.59782 C18.5004237,103.023984 27.172684,109.242093 41.1707375,109.242093 C54.0252524,109.242093 61.6684894,105.214113 65.9649951,98.2381687 C69.0252838,93.2693858 70.1776607,87.316785 70.1776607,81 L70.1776607,14.5895735 L15.6873198,14.5895735 Z" id="Combined-Shape" fill="#000000" fill-rule="nonzero"></path>
    </g>
</svg>